<svg width="322" height="240" viewBox="0 0 322 240" fill="none" xmlns="http://www.w3.org/2000/svg">
    <g clip-path="url(#clip0_209_35872)">
        <path d="M234.918 228.036H228.529L225.488 203.392H234.918V228.036Z" fill="#FFB8B8" />
        <path
            d="M238.291 239.106H233.709L232.891 234.78L230.796 239.106H218.644C218.062 239.106 217.494 238.92 217.025 238.575C216.556 238.23 216.209 237.744 216.036 237.187C215.863 236.631 215.871 236.034 216.061 235.484C216.251 234.933 216.612 234.457 217.092 234.126L226.796 227.424V223.051L237.004 223.66L238.291 239.106Z"
            fill="#2E412F" />
        <path d="M272.877 219.973L267.75 223.786L250.604 205.824L258.172 200.197L272.877 219.973Z"
            fill="#FFB8B8" />
        <path
            d="M282.189 226.844L278.512 229.578L275.275 226.595L276.175 231.316L266.424 238.568C265.956 238.915 265.39 239.104 264.807 239.107C264.225 239.11 263.657 238.927 263.186 238.584C262.715 238.242 262.366 237.757 262.189 237.202C262.013 236.647 262.019 236.05 262.206 235.498L265.994 224.329L263.385 220.819L271.939 215.217L282.189 226.844Z"
            fill="#2E412F" />
        <path
            d="M242.357 100.886C242.357 100.886 254.479 111.359 248.886 141.216L242.058 170.471L264.327 207.416L257.226 216.054L228.276 176.066L217.785 151.457L214.841 107.659L242.357 100.886Z"
            fill="#2E412F" />
        <path
            d="M223.567 158.47L222.838 169.762L225.069 217.883L235.569 216.054L237.576 181.793L223.567 158.47Z"
            fill="#2E412F" />
        <path d="M88.824 233.83L94.5379 233.83L97.2558 211.792L88.8232 211.792L88.824 233.83Z"
            fill="#FFB6B6" />
        <path
            d="M87.3672 231.965L88.9754 231.965L95.2543 229.412L98.6196 231.965H98.62C100.522 231.965 102.346 232.72 103.69 234.065C105.035 235.41 105.791 237.234 105.791 239.136V239.369L87.3675 239.369L87.3672 231.965Z"
            fill="#2E412F" />
        <path d="M110.967 230.23L116.54 231.488L124.046 210.59L115.82 208.732L110.967 230.23Z"
            fill="#FFB6B6" />
        <path
            d="M109.956 228.089L111.525 228.444L118.212 227.336L120.932 230.568L120.932 230.568C122.787 230.987 124.4 232.125 125.416 233.733C126.431 235.341 126.766 237.287 126.348 239.142L126.296 239.369L108.325 235.312L109.956 228.089Z"
            fill="#2E412F" />
        <path
            d="M81.5875 99.0977C78.9086 107.177 79.1919 115.947 82.2314 125.36L83.5308 178.355C83.5308 178.355 81.5948 213.109 87.8418 225.338H96.9015L101.387 175.182L101.95 141.516L121.374 169.918L109.002 224.518L120.153 225.515L140.228 166.261L115.459 108.775L81.5875 99.0977Z"
            fill="#2E412F" />
        <path
            d="M186.066 76.0838C192.996 69.8393 203.303 66.6995 211.949 70.201C203.08 75.1249 196.239 83.0272 192.636 92.5097C191.259 96.1717 190.11 100.388 186.724 102.349C184.618 103.569 181.997 103.628 179.635 103.039C177.273 102.45 175.108 101.27 172.973 100.101L172.365 100.087C175.093 91.1668 179.137 82.3284 186.066 76.0838Z"
            fill="#E6E6E6" />
        <path
            d="M211.901 70.3907C204.244 71.3802 197.093 74.7574 191.464 80.0424C190.233 81.1587 189.184 82.4621 188.358 83.9048C187.599 85.3362 187.237 86.9447 187.309 88.5634C187.347 90.0739 187.56 91.6148 187.23 93.1081C187.049 93.87 186.71 94.5852 186.233 95.2067C185.757 95.8282 185.155 96.342 184.466 96.7144C182.774 97.687 180.833 97.9936 178.925 98.2275C176.807 98.4872 174.602 98.7234 172.768 99.9117C172.546 100.056 172.335 99.7025 172.557 99.5587C175.748 97.4912 179.786 98.2435 183.216 96.8636C184.817 96.2197 186.234 95.0895 186.735 93.3807C187.174 91.8865 186.955 90.2973 186.904 88.7682C186.81 87.1902 187.104 85.6132 187.76 84.1749C188.51 82.6949 189.506 81.3532 190.706 80.2074C193.367 77.5847 196.423 75.3967 199.764 73.7235C203.565 71.7927 207.669 70.5264 211.898 69.9795C212.159 69.9458 212.161 70.3572 211.901 70.3907H211.901Z"
            fill="white" />
        <path
            d="M193.177 78.2342C192.418 77.1695 192.063 75.8698 192.174 74.5672C192.286 73.2646 192.856 72.0441 193.784 71.1234C193.973 70.9378 194.27 71.2219 194.082 71.4078C193.216 72.2635 192.684 73.4005 192.583 74.6137C192.482 75.8268 192.818 77.0362 193.53 78.0235C193.684 78.2382 193.331 78.4477 193.177 78.2342V78.2342Z"
            fill="white" />
        <path
            d="M187.189 87.8C189.821 88.2663 192.531 87.7235 194.78 86.2801C195.003 86.1369 195.213 86.4901 194.991 86.6331C192.648 88.1308 189.826 88.6898 187.089 88.1987C186.828 88.1517 186.93 87.7533 187.189 87.8V87.8Z"
            fill="white" />
        <path
            d="M203.598 72.3366C203.806 72.8097 204.128 73.2239 204.535 73.5419C204.942 73.8599 205.422 74.0717 205.932 74.1584C206.193 74.2021 206.091 74.6004 205.831 74.557C205.269 74.4586 204.739 74.224 204.288 73.8737C203.838 73.5234 203.48 73.068 203.245 72.5474C203.219 72.5002 203.212 72.4447 203.225 72.3924C203.238 72.34 203.271 72.2947 203.317 72.2655C203.363 72.2378 203.419 72.2298 203.472 72.2431C203.525 72.2564 203.57 72.29 203.598 72.3366Z"
            fill="white" />
        <path
            d="M221.47 100.315C221.306 100.293 221.143 100.27 220.976 100.25C218.77 99.9571 216.544 99.844 214.32 99.9117C214.148 99.9142 213.974 99.9193 213.802 99.9268C208.445 100.147 203.176 101.36 198.262 103.504C196.307 104.359 194.421 105.361 192.618 106.502C190.129 108.078 187.555 109.985 184.773 110.628C184.483 110.698 184.189 110.751 183.893 110.785L172.396 100.83C172.381 100.794 172.364 100.761 172.349 100.725L171.872 100.348C171.961 100.283 172.054 100.217 172.143 100.152C172.195 100.114 172.249 100.078 172.3 100.04C172.335 100.015 172.37 99.9903 172.401 99.966C172.412 99.9577 172.424 99.9496 172.433 99.9439C172.464 99.9196 172.494 99.9002 172.522 99.8786C173.044 99.509 173.57 99.1424 174.099 98.7788C174.101 98.7762 174.101 98.7762 174.106 98.7758C178.11 95.967 182.433 93.6431 186.985 91.8528C187.121 91.8012 187.26 91.7469 187.402 91.6998C189.452 90.9377 191.56 90.3443 193.707 89.9257C194.883 89.7002 196.07 89.5345 197.263 89.429C200.345 89.1625 203.451 89.3825 206.465 90.081C212.474 91.4743 217.97 94.7738 221.226 99.9196C221.309 100.051 221.39 100.181 221.47 100.315Z"
            fill="#E6E6E6" />
        <path
            d="M221.318 100.439C214.608 96.6184 206.865 95.0096 199.189 95.8405C197.533 95.9901 195.912 96.3997 194.383 97.0542C192.915 97.7399 191.658 98.8063 190.741 100.142C189.862 101.371 189.104 102.73 187.941 103.723C187.339 104.223 186.637 104.589 185.882 104.799C185.128 105.008 184.338 105.056 183.564 104.939C181.627 104.697 179.893 103.773 178.229 102.811C176.381 101.743 174.478 100.604 172.298 100.448C172.034 100.43 172.079 100.021 172.343 100.04C176.135 100.31 178.906 103.342 182.476 104.305C184.142 104.755 185.953 104.706 187.383 103.643C188.632 102.714 189.415 101.314 190.294 100.062C191.169 98.7454 192.354 97.6632 193.743 96.9097C195.233 96.1795 196.836 95.7081 198.484 95.5157C202.188 95.0235 205.945 95.1167 209.62 95.7918C213.818 96.539 217.857 97.9988 221.562 100.108C221.792 100.239 221.546 100.568 221.318 100.439L221.318 100.439Z"
            fill="white" />
        <path
            d="M201.646 95.4276C201.681 94.1208 202.18 92.8691 203.053 91.8961C203.926 90.9231 205.117 90.2921 206.412 90.1159C206.674 90.0811 206.74 90.487 206.478 90.5218C205.271 90.6837 204.162 91.2715 203.351 92.1793C202.54 93.087 202.08 94.2548 202.054 95.4719C202.048 95.7363 201.64 95.6906 201.646 95.4276Z"
            fill="white" />
        <path
            d="M191.106 99.4608C192.926 101.417 195.417 102.616 198.082 102.817C198.346 102.837 198.301 103.246 198.038 103.226C195.265 103.011 192.675 101.759 190.785 99.7186C190.605 99.524 190.927 99.2673 191.106 99.4608Z"
            fill="white" />
        <path
            d="M213.517 96.9937C213.398 97.4965 213.406 98.021 213.539 98.5201C213.673 99.0191 213.929 99.4772 214.283 99.8531C214.466 100.045 214.144 100.302 213.963 100.111C213.573 99.6937 213.292 99.1875 213.143 98.6364C212.994 98.0853 212.982 97.5061 213.108 96.9495C213.116 96.896 213.144 96.8474 213.186 96.8135C213.228 96.7797 213.281 96.7631 213.335 96.7672C213.389 96.7733 213.438 96.8006 213.473 96.843C213.507 96.8854 213.523 96.9396 213.517 96.9937Z"
            fill="white" />
        <path
            d="M19.5281 233.43C18.9884 235.455 17.5702 237.141 15.858 238.369C15.5789 238.57 15.2923 238.757 15.0019 238.932C14.9126 238.984 14.8233 239.039 14.7302 239.088C14.6297 239.147 14.5292 239.203 14.4287 239.255H6.37769C6.23252 238.961 6.09108 238.664 5.94964 238.369C2.49919 231.119 0.0760621 223.295 0.489222 215.326C0.653138 212.234 1.30254 209.188 2.41358 206.299C4.62455 200.541 8.65938 195.557 14.2091 193.048C14.3468 192.985 14.492 192.922 14.6335 192.862C14.5888 193.022 14.5441 193.179 14.4995 193.339C13.9041 195.484 13.4833 197.673 13.2414 199.886C13.219 200.057 13.2004 200.228 13.1855 200.403C12.6567 205.74 13.1263 211.129 14.5702 216.293C14.5739 216.305 14.5776 216.319 14.5813 216.331C14.8977 217.473 15.265 218.599 15.6831 219.707C16.0106 220.581 16.3643 221.445 16.7514 222.293C18.3668 225.856 20.5331 229.652 19.5281 233.43Z"
            fill="#E6E6E6" />
        <path
            d="M14.7339 193.03C14.6557 193.134 14.5775 193.235 14.4994 193.339C12.8645 195.506 11.4763 197.848 10.3603 200.322C10.3008 200.445 10.2449 200.567 10.1966 200.694C8.66748 204.149 7.68548 207.821 7.28582 211.578C7.2815 211.603 7.27901 211.63 7.27838 211.656C7.18533 212.534 7.12949 213.42 7.10716 214.306C7.02439 215.966 7.20402 217.63 7.63943 219.234C8.03644 220.544 8.73213 221.745 9.67173 222.74C9.76479 222.841 9.85784 222.941 9.95834 223.038C10.0328 223.116 10.1147 223.194 10.1928 223.269C10.9447 223.987 11.7673 224.653 12.4745 225.424C12.7987 225.769 13.0914 226.143 13.3492 226.541C13.7607 227.207 14.0265 227.953 14.1292 228.729C14.2318 229.505 14.169 230.294 13.9448 231.044C13.4386 232.928 12.281 234.517 11.0973 236.032C10.5055 236.791 9.89506 237.558 9.36651 238.37C9.17298 238.66 8.9943 238.954 8.83055 239.256H8.36155C8.51788 238.954 8.6891 238.66 8.87521 238.37C10.2338 236.229 12.1656 234.391 13.1669 232.035C13.8443 230.445 14.049 228.644 13.1929 227.084C12.942 226.631 12.6384 226.208 12.2884 225.826C11.6073 225.056 10.7921 224.397 10.0514 223.701C9.86531 223.526 9.68292 223.347 9.50798 223.161C8.58049 222.219 7.86478 221.089 7.40868 219.848C6.89215 218.272 6.64795 216.619 6.68658 214.961C6.68658 213.904 6.74241 212.839 6.84663 211.782C6.8578 211.648 6.87269 211.511 6.88758 211.373C7.64877 204.721 10.1768 198.394 14.2091 193.049C14.2835 192.944 14.3617 192.844 14.4398 192.743C14.5999 192.535 14.8939 192.825 14.7339 193.03Z"
            fill="white" />
        <path
            d="M7.03794 211.817C5.74869 211.601 4.5784 210.933 3.73605 209.933C2.89371 208.934 2.43417 207.667 2.4395 206.36C2.44021 206.306 2.46159 206.255 2.49912 206.218C2.53666 206.18 2.58743 206.158 2.64073 206.157C2.69403 206.156 2.7457 206.175 2.78485 206.211C2.82401 206.248 2.84759 206.298 2.85063 206.351C2.84342 207.568 3.2716 208.748 4.05789 209.677C4.84418 210.607 5.93679 211.224 7.13851 211.419C7.39961 211.461 7.29754 211.86 7.03794 211.817V211.817Z"
            fill="white" />
        <path
            d="M9.56863 222.815C11.759 221.284 13.2918 218.984 13.8615 216.373C13.9177 216.114 14.3163 216.215 14.2601 216.474C13.6622 219.19 12.0622 221.58 9.7794 223.168C9.56171 223.32 9.35214 222.966 9.56865 222.815L9.56863 222.815Z"
            fill="white" />
        <path
            d="M10.2369 200.278C10.7183 200.466 11.2388 200.531 11.7516 200.468C12.2644 200.405 12.7535 200.215 13.175 199.916C13.3907 199.762 13.6 200.116 13.3858 200.269C12.9186 200.597 12.3781 200.806 11.8117 200.877C11.2453 200.948 10.6701 200.879 10.1364 200.677C10.0844 200.662 10.0401 200.628 10.0125 200.581C9.98478 200.535 9.97579 200.48 9.98732 200.427C10.0009 200.374 10.0347 200.329 10.0815 200.301C10.1282 200.273 10.1841 200.265 10.2369 200.278Z"
            fill="white" />
        <path
            d="M42.6577 207.423C42.5274 207.524 42.3934 207.624 42.2631 207.729C40.496 209.081 38.8416 210.575 37.3164 212.195C37.1973 212.318 37.0782 212.445 36.9628 212.571L36.9591 212.575C33.3426 216.501 30.4831 221.061 28.5246 226.027L28.5135 226.06C28.5097 226.071 28.506 226.079 28.5023 226.09C27.726 228.078 27.1002 230.121 26.63 232.202C26.1759 234.234 25.8037 236.412 25.0928 238.369C24.9848 238.671 24.8657 238.969 24.7392 239.255H8.19043C8.24626 238.961 8.30582 238.664 8.36537 238.369C9.2072 234.057 10.5229 229.85 12.2885 225.826C12.3481 225.692 12.4076 225.558 12.4746 225.424C13.3861 223.435 14.4579 221.525 15.6794 219.71C15.6794 219.71 15.6795 219.709 15.6797 219.709C15.6799 219.708 15.6801 219.708 15.6805 219.708C15.6808 219.707 15.6813 219.707 15.6817 219.707C15.6822 219.707 15.6827 219.706 15.6832 219.707C16.3539 218.716 17.0744 217.761 17.842 216.844C19.8327 214.476 22.1842 212.436 24.8099 210.799C24.8248 210.788 24.8434 210.781 24.8583 210.77C30.0842 207.528 36.2779 205.983 42.1999 207.319H42.2036C42.3562 207.353 42.5051 207.386 42.6577 207.423Z"
            fill="#E6E6E6" />
        <path
            d="M42.6395 207.621C42.5129 207.654 42.3864 207.692 42.2635 207.729C39.6549 208.474 37.137 209.507 34.7559 210.807C34.6368 210.87 34.5177 210.937 34.3986 211.004C31.1081 212.841 28.1211 215.175 25.5436 217.924C25.5416 217.926 25.5402 217.929 25.5399 217.931C25.5101 217.961 25.4766 217.995 25.4505 218.024C24.855 218.665 24.2818 219.331 23.7383 220.016C22.6753 221.293 21.8188 222.728 21.1998 224.27C20.7268 225.555 20.5599 226.933 20.7122 228.294C20.7234 228.432 20.742 228.566 20.7606 228.703C20.7755 228.811 20.7904 228.919 20.809 229.031C21.0546 230.523 21.479 232.02 21.3599 233.542C21.2874 234.322 21.0506 235.078 20.665 235.76C20.2795 236.442 19.7539 237.035 19.1228 237.499C18.6939 237.83 18.2354 238.122 17.7531 238.37C17.0635 238.725 16.3451 239.022 15.6054 239.256H14.1426C14.3399 239.2 14.5334 239.144 14.7307 239.088C15.4307 238.891 16.1181 238.651 16.789 238.37C17.1723 238.21 17.5453 238.026 17.9057 237.819C19.402 236.959 20.6489 235.641 20.9095 233.881C21.1365 232.34 20.6973 230.799 20.4368 229.291C20.3921 229.031 20.3512 228.774 20.3288 228.517C20.1511 227.212 20.259 225.883 20.6452 224.624C21.1808 223.053 21.9814 221.585 23.0125 220.284C23.6503 219.437 24.3311 218.623 25.0522 217.846C25.1416 217.745 25.2346 217.645 25.3314 217.544C27.9632 214.776 31.0019 212.425 34.3428 210.573H34.3465C36.8306 209.19 39.4659 208.098 42.2003 207.32H42.204C42.3268 207.282 42.4534 207.245 42.5762 207.212C42.833 207.145 42.8926 207.55 42.6395 207.621Z"
            fill="white" />
        <path
            d="M25.1839 217.987C24.2849 217.038 23.7525 215.8 23.6819 214.494C23.6112 213.189 24.0069 211.901 24.7982 210.86C24.9591 210.65 25.293 210.89 25.1319 211.101C24.3933 212.068 24.0248 213.268 24.0931 214.484C24.1613 215.699 24.6618 216.85 25.5042 217.729C25.6871 217.92 25.3657 218.177 25.1839 217.987H25.1839Z"
            fill="white" />
        <path
            d="M20.583 228.291C23.2536 228.388 25.8625 227.474 27.8893 225.732C28.09 225.559 28.3475 225.88 28.147 226.053C26.0345 227.861 23.3177 228.807 20.5387 228.7C20.2739 228.69 20.3196 228.281 20.583 228.291Z"
            fill="white" />
        <path
            d="M34.6853 210.7C34.9567 211.14 35.333 211.505 35.7804 211.763C36.2279 212.022 36.7325 212.165 37.249 212.18C37.5138 212.187 37.4679 212.596 37.2047 212.589C36.6342 212.569 36.0771 212.411 35.5821 212.126C35.0871 211.842 34.6692 211.441 34.365 210.958C34.3325 210.914 34.3177 210.861 34.3235 210.807C34.3293 210.753 34.3553 210.704 34.3963 210.669C34.4389 210.635 34.4931 210.619 34.5473 210.625C34.6014 210.631 34.651 210.658 34.6853 210.7Z"
            fill="white" />
        <path
            d="M170.317 64.4415C169.935 64.944 169.447 65.3566 168.889 65.6503C168.33 65.944 167.714 66.1116 167.083 66.1413C166.453 66.171 165.823 66.0622 165.239 65.8223C164.655 65.5825 164.131 65.2176 163.704 64.7533L149.634 70.8726L151.004 63.0182L164.155 58.4114C164.983 57.7448 166.026 57.4049 167.088 57.4562C168.149 57.5075 169.155 57.9464 169.914 58.6897C170.674 59.433 171.134 60.4291 171.209 61.4892C171.283 62.5493 170.965 63.5997 170.317 64.4415Z"
            fill="#FFB8B8" />
        <path
            d="M160.927 66.894L128.247 81.4507L128.177 81.4257L90.9305 68.1528C88.1561 66.7029 86.041 64.2472 85.0181 61.2886C83.9953 58.33 84.1421 55.0923 85.4285 52.2385C86.1416 50.6617 87.1805 49.2538 88.4769 48.1075C89.7733 46.9611 91.2978 46.1024 92.95 45.5877C94.6023 45.0731 96.3448 44.9141 98.0628 45.1215C99.7809 45.3288 101.436 45.8976 102.918 46.7905L130.636 63.4878L157.515 60.0043L160.927 66.894Z"
            fill="#E6E6E6" />
        <path
            d="M321.556 239.557C321.556 239.615 321.545 239.673 321.523 239.727C321.501 239.781 321.468 239.83 321.427 239.871C321.386 239.912 321.337 239.945 321.283 239.967C321.229 239.989 321.171 240 321.113 240H0.898988C0.781513 240 0.668854 239.953 0.585788 239.87C0.502721 239.787 0.456055 239.675 0.456055 239.557C0.456055 239.44 0.502721 239.327 0.585788 239.244C0.668854 239.161 0.781513 239.114 0.898988 239.114H321.113C321.171 239.114 321.229 239.125 321.283 239.148C321.337 239.17 321.386 239.202 321.427 239.244C321.468 239.285 321.501 239.334 321.523 239.387C321.545 239.441 321.556 239.499 321.556 239.557Z"
            fill="#CCCCCC" />
        <path
            d="M117.075 110.472L84.1317 105.203C83.2677 104.926 82.4738 104.466 81.8045 103.853C81.1353 103.241 80.6065 102.491 80.2544 101.655C79.9024 100.819 79.7354 99.9162 79.7651 99.0094C79.7947 98.1027 80.0202 97.2131 80.4261 96.4017L81.92 93.4134L81.3397 62.0182C81.2698 57.9344 82.2766 53.9042 84.2588 50.3331C86.241 46.762 89.1287 43.7758 92.6314 41.6751L95.844 39.7543L97.4675 35.6313L112.438 35.9965L112.482 41.4038L117.843 49.953L117.843 49.9884L117.507 96.5206L116.029 101.323L118.263 106.908L117.075 110.472Z"
            fill="#E6E6E6" />
        <path
            d="M106.324 30.5045C113.836 30.5045 119.926 24.4145 119.926 16.9021C119.926 9.38977 113.836 3.2998 106.324 3.2998C98.8117 3.2998 92.7217 9.38977 92.7217 16.9021C92.7217 24.4145 98.8117 30.5045 106.324 30.5045Z"
            fill="#FFB8B8" />
        <path
            d="M92.1596 19.8675C91.7538 18.1583 91.9401 15.7532 92.1694 14.0322C92.7705 9.52047 95.276 5.23125 99.0827 2.6906C99.8045 2.14239 100.662 1.80154 101.563 1.7048C102.464 1.6672 103.44 2.14929 103.716 3.00718C103.943 2.44097 104.284 1.92726 104.717 1.49776C105.15 1.06826 105.667 0.732083 106.235 0.509981C107.376 0.072759 108.603 -0.0925879 109.819 0.0270467C112.177 0.221358 114.438 1.05026 116.362 2.42577C118.286 3.80128 119.802 5.6721 120.749 7.83968C121.112 8.70277 122.127 5.51473 122.587 6.33023C123.01 7.1779 123.748 7.82633 124.643 8.13676C125.545 8.38845 125.912 12.1047 126.267 11.2381C126.542 11.8786 126.651 12.5783 126.583 13.2721C126.515 13.9659 126.273 14.6313 125.879 15.2062C125.485 15.7812 124.951 16.247 124.329 16.5604C123.706 16.8737 123.014 17.0244 122.317 16.9983C121.399 16.9639 120.521 16.6263 119.614 16.4809C116.37 15.9611 112.929 18.3134 112.236 21.5247C111.987 20.596 111.591 19.7135 111.061 18.9113C110.792 18.5123 110.432 18.1833 110.01 17.9516C109.589 17.7199 109.118 17.5923 108.637 17.5793C107.714 17.6138 106.903 18.2172 106.304 18.9204C105.705 19.6235 105.255 20.4438 104.652 21.1432C102.882 23.1952 100.488 27.9807 97.9653 27.6317C95.9746 27.3563 92.7135 22.2011 92.1596 19.8675Z"
            fill="#2E412F" />
        <path
            d="M188.548 79.8558C188.643 79.2356 188.516 78.6018 188.188 78.0667C187.861 77.5316 187.354 77.1298 186.759 76.9325L150.128 64.7323C149.776 64.6149 149.405 64.5722 149.036 64.607L139.854 65.4752L134.586 65.975L124.864 66.8937C124.277 66.9499 123.726 67.1992 123.296 67.6027C122.866 68.0062 122.582 68.541 122.488 69.1232L117.552 99.9567C117.459 100.558 117.573 101.173 117.877 101.701C118.18 102.229 118.655 102.637 119.221 102.858L156.235 117.146C156.408 117.213 156.589 117.262 156.773 117.29C157.041 117.334 157.314 117.336 157.583 117.296L181.5 113.752C182.064 113.67 182.587 113.409 182.991 113.006C183.394 112.604 183.658 112.082 183.742 111.519L188.548 79.8558Z"
            fill="white" />
        <path
            d="M120.061 100.686L157.074 114.972C157.128 114.994 157.187 115.001 157.244 114.992L181.158 111.448C181.229 111.438 181.295 111.406 181.346 111.355C181.396 111.305 181.429 111.239 181.439 111.168L186.248 79.5049C186.259 79.4276 186.243 79.3489 186.202 79.2822C186.161 79.2156 186.099 79.1652 186.025 79.1396L185.779 79.0562L149.392 66.9421C149.375 66.9362 149.358 66.9321 149.341 66.9298C149.312 66.9246 149.284 66.9231 149.255 66.9253L126.861 69.0444L125.084 69.2112C125.011 69.219 124.943 69.2504 124.889 69.3006C124.836 69.3509 124.8 69.4172 124.788 69.4895L119.853 100.322C119.841 100.397 119.855 100.474 119.893 100.541C119.931 100.607 119.99 100.658 120.061 100.686Z"
            fill="#149548" />
        <path
            d="M126.86 69.0444L149.254 66.9253C149.283 66.9231 149.312 66.9246 149.34 66.9298C149.358 66.9321 149.375 66.9362 149.391 66.9421L185.778 79.0562L176.18 80.0722L172.588 80.4507L162.367 81.5306C162.337 81.5321 162.307 81.5317 162.277 81.5295C162.259 81.524 162.241 81.5185 162.219 81.5127L126.86 69.0444Z"
            fill="#2E412F" />
        <path
            d="M119.221 102.86L156.234 117.147C156.408 117.214 156.589 117.261 156.774 117.288C157.042 117.332 157.315 117.336 157.584 117.298L181.498 113.754C182.063 113.672 182.585 113.41 182.99 113.007C183.394 112.605 183.658 112.083 183.742 111.519L188.547 79.8554C188.618 79.3886 188.565 78.9113 188.392 78.472C188.367 78.4136 188.343 78.3552 188.314 78.3002C188.124 77.899 187.834 77.5534 187.472 77.2961C187.254 77.1396 187.013 77.017 186.759 76.9326L186.715 76.9172L150.13 64.7317C149.98 64.684 149.827 64.647 149.673 64.6208C149.461 64.5908 149.247 64.5867 149.035 64.6084L139.855 65.4737L134.587 65.9762L124.863 66.8943C124.466 66.9314 124.081 67.0583 123.74 67.2655C123.713 67.2783 123.688 67.2934 123.664 67.3106C123.648 67.3217 123.631 67.3339 123.616 67.3472C123.318 67.5508 123.064 67.813 122.87 68.1178C122.677 68.4227 122.547 68.7638 122.489 69.1203L117.55 99.956C117.457 100.558 117.571 101.174 117.875 101.702C118.179 102.23 118.654 102.638 119.221 102.86ZM123.145 69.2278C123.205 68.8582 123.369 68.5133 123.617 68.2335C123.693 68.1434 123.777 68.0613 123.869 67.9883C124.12 67.7853 124.417 67.6467 124.734 67.5848C124.796 67.5719 124.86 67.563 124.923 67.5581L141.295 66.0114L149.099 65.2689C149.152 65.2627 149.2 65.2636 149.249 65.2608C149.367 65.2583 149.485 65.2671 149.602 65.287C149.709 65.3009 149.814 65.326 149.916 65.3619L186.545 77.5627C186.574 77.573 186.599 77.5829 186.628 77.5931C186.961 77.717 187.254 77.9299 187.474 78.2086C187.649 78.422 187.776 78.6697 187.848 78.9356C187.92 79.2015 187.935 79.4796 187.892 79.7516L183.082 111.419C183.019 111.841 182.822 112.232 182.52 112.533C182.218 112.835 181.827 113.032 181.404 113.094L157.487 116.638C157.144 116.687 156.795 116.647 156.473 116.523L119.46 102.24C119.035 102.073 118.68 101.766 118.453 101.371C118.226 100.975 118.14 100.515 118.209 100.064L123.145 69.2278Z"
            fill="#42563D" />
        <path
            d="M123.536 67.5152C123.556 67.4591 123.59 67.4094 123.636 67.3714C123.651 67.3593 123.667 67.3484 123.684 67.3386C123.7 67.3326 123.716 67.3229 123.731 67.3169C123.805 67.2871 123.888 67.2857 123.963 67.313L124.734 67.5847L162.371 80.8615L171.179 79.9308L176.108 79.4109L186.541 78.3064L187.474 78.2086L187.656 78.1885C187.734 78.1814 187.812 78.2018 187.877 78.2462C187.942 78.2906 187.989 78.3563 188.01 78.4318C188.015 78.4492 188.019 78.467 188.02 78.485C188.028 78.5567 188.012 78.6289 187.975 78.6908C187.938 78.7527 187.882 78.8009 187.815 78.8282C187.786 78.8404 187.755 78.8488 187.723 78.853L186.454 78.986L176.18 80.0721L172.588 80.4505L162.367 81.5304C162.337 81.5319 162.307 81.5315 162.277 81.5293C162.259 81.5238 162.241 81.5184 162.219 81.5125L123.869 67.9882L123.739 67.9421C123.709 67.9323 123.681 67.917 123.657 67.8969C123.599 67.8543 123.556 67.7944 123.534 67.7258C123.513 67.6571 123.513 67.5834 123.536 67.5152Z"
            fill="#42563D" />
        <path
            d="M156.875 117.385C156.788 117.371 156.711 117.324 156.659 117.253C156.607 117.182 156.585 117.094 156.598 117.007L162.002 81.1498C162.015 81.0625 162.062 80.9841 162.133 80.9317C162.204 80.8793 162.293 80.8573 162.38 80.8704L162.383 80.8709C162.47 80.8847 162.548 80.9323 162.599 81.0031C162.651 81.0739 162.673 81.1622 162.66 81.249L157.256 117.106C157.243 117.193 157.196 117.272 157.125 117.324C157.054 117.377 156.965 117.399 156.878 117.385L156.875 117.385Z"
            fill="#42563D" />
        <path
            d="M170.571 115.11L166.978 115.49L171.181 79.9301C171.181 79.9301 175.981 79.0611 176.109 79.4096C176.188 79.6176 170.605 114.882 170.571 115.11Z"
            fill="#42563D" />
        <path d="M123.74 67.9419L123.644 84.1583L152.351 95.097L162.66 81.249L123.74 67.9419Z"
            fill="#42563D" />
        <path
            d="M187.476 78.209C187.236 77.9074 186.913 77.6827 186.547 77.5627L149.919 65.3623C149.816 65.3277 149.71 65.3019 149.603 65.2853C149.486 65.2653 149.368 65.2564 149.249 65.2589L149.308 64.8876L149.675 64.6222L158.373 58.3247L187.421 67.227L187.472 77.2961L187.476 78.209Z"
            fill="#42563D" />
        <path
            d="M125.203 93.9746C125.244 93.9786 125.285 93.9872 125.324 94.0001L136.563 97.6913C136.703 97.7375 136.82 97.8377 136.887 97.9698C136.954 98.102 136.965 98.2553 136.919 98.396C136.873 98.5367 136.773 98.6533 136.641 98.7201C136.508 98.787 136.355 98.7986 136.214 98.7524L124.976 95.0612C124.845 95.0183 124.735 94.9289 124.667 94.8099C124.598 94.691 124.576 94.5509 124.604 94.4165C124.632 94.2821 124.708 94.1627 124.819 94.0812C124.929 93.9997 125.066 93.9617 125.203 93.9746H125.203Z"
            fill="white" />
        <path
            d="M170.548 162.002C173.014 162.002 175.014 160.002 175.014 157.535C175.014 155.069 173.014 153.069 170.548 153.069C168.081 153.069 166.081 155.069 166.081 157.535C166.081 160.002 168.081 162.002 170.548 162.002Z"
            fill="#F2F2F2" />
        <path
            d="M56.6492 178.379C59.1161 178.379 61.1158 176.38 61.1158 173.913C61.1158 171.446 59.1161 169.446 56.6492 169.446C54.1824 169.446 52.1826 171.446 52.1826 173.913C52.1826 176.38 54.1824 178.379 56.6492 178.379Z"
            fill="#F2F2F2" />
        <path
            d="M149.703 30.6095C152.17 30.6095 154.17 28.6097 154.17 26.1429C154.17 23.676 152.17 21.6763 149.703 21.6763C147.236 21.6763 145.236 23.676 145.236 26.1429C145.236 28.6097 147.236 30.6095 149.703 30.6095Z"
            fill="#F2F2F2" />
        <path
            d="M157.032 100.544C156.453 100.795 155.826 100.917 155.195 100.9C154.564 100.883 153.945 100.727 153.38 100.445C152.816 100.163 152.32 99.7599 151.928 99.2652C151.536 98.7705 151.257 98.1959 151.111 97.5818L135.846 96.0395L140.882 89.8584L154.606 92.2706C155.654 92.0938 156.73 92.3076 157.631 92.8714C158.532 93.4352 159.195 94.3098 159.494 95.3295C159.793 96.3493 159.707 97.4433 159.253 98.4043C158.8 99.3653 158.009 100.126 157.032 100.544Z"
            fill="#FFB8B8" />
        <path
            d="M147.642 98.0918L112.018 94.8094L111.969 94.7533L85.9694 64.9623C84.2584 62.3409 83.6141 59.1646 84.1686 56.0837C84.7231 53.0027 86.4344 50.2503 88.9521 48.39C90.3451 47.3633 91.9398 46.6432 93.6312 46.2772C95.3226 45.9112 97.0723 45.9076 98.7652 46.2666C100.458 46.6256 102.056 47.339 103.453 48.3599C104.85 49.3809 106.015 50.6862 106.872 52.1899L122.886 80.3088L148.035 90.4134L147.642 98.0918Z"
            fill="#E6E6E6" />
        <path
            d="M237.058 40.801C236.173 34.3118 235.063 27.3447 230.486 22.6603C229.034 21.174 227.296 19.9971 225.377 19.2007C223.457 18.4042 221.396 18.0047 219.318 18.0262C217.24 18.0477 215.188 18.4898 213.286 19.3258C211.383 20.1618 209.67 21.3744 208.249 22.8905C204.917 26.4447 203.446 31.4354 203.311 36.3051C203.177 41.1749 204.261 45.9905 205.464 50.7112C211.831 50.8384 218.151 49.5944 223.995 47.0637C225.457 46.4294 226.894 45.7123 228.438 45.3194C229.982 44.9264 231.083 45.9152 232.519 46.6048L233.307 45.0953C233.953 46.2962 235.951 45.9402 236.676 44.7855C237.401 43.6307 237.242 42.1519 237.058 40.801Z"
            fill="#2E412F" />
        <path
            d="M211.819 77.021L185.81 77.5773C185.411 76.8868 184.819 76.3274 184.108 75.9669C183.396 75.6065 182.595 75.4607 181.802 75.5472C181.009 75.6336 180.259 75.9487 179.642 76.4541C179.024 76.9594 178.568 77.6332 178.326 78.3935C178.085 79.1539 178.07 79.9679 178.283 80.7365C178.496 81.5052 178.928 82.1954 179.526 82.7231C180.124 83.2508 180.863 83.5932 181.652 83.7088C182.441 83.8244 183.247 83.7081 183.972 83.3741C187.421 83.5702 214.408 87.4005 216.018 84.932C217.653 82.4266 226.375 73.5846 226.375 73.5846L219.67 64.0396L211.819 77.021Z"
            fill="#FFB8B8" />
        <path
            d="M218.156 47.2216C224.905 47.2216 230.376 41.7505 230.376 35.0016C230.376 28.2528 224.905 22.7817 218.156 22.7817C211.408 22.7817 205.937 28.2528 205.937 35.0016C205.937 41.7505 211.408 47.2216 218.156 47.2216Z"
            fill="#FFB8B8" />
        <path
            d="M237.729 58.5137C236.289 55.6477 235.589 52.1071 232.519 51.178C230.446 50.5506 222.061 51.4909 220.172 52.55C217.029 54.3117 219.877 57.613 218.023 60.7023C216.007 64.0607 210.529 70.8005 208.514 74.1588C207.128 76.4676 211.795 83.2444 211.046 85.8308C210.297 88.4171 210.261 91.32 211.537 93.691C212.68 95.8131 211.027 97.6904 212.176 99.8091C213.37 102.012 214.837 110.251 213.725 112.497L212.98 114.73C220.368 115.164 226.579 106.339 233.92 105.409C235.744 105.179 237.637 104.877 239.14 103.818C241.353 102.259 242.228 99.4303 242.775 96.7788C245.407 83.8179 243.631 70.3493 237.729 58.5137Z"
            fill="#42563D" />
        <path
            d="M248.805 88.7755C247.776 85.9669 245.913 73.6871 245.913 73.6871L234.254 73.3452L239.954 87.4046L224.399 109.18C224.399 109.18 224.428 109.228 224.48 109.313C223.663 109.182 222.824 109.301 222.075 109.654C221.326 110.007 220.7 110.578 220.281 111.293C219.862 112.007 219.668 112.831 219.725 113.657C219.781 114.484 220.086 115.274 220.599 115.924C221.113 116.574 221.81 117.054 222.601 117.301C223.391 117.549 224.238 117.552 225.03 117.31C225.822 117.068 226.523 116.592 227.04 115.946C227.558 115.299 227.868 114.511 227.931 113.685C227.988 113.718 228.055 113.73 228.12 113.719C228.185 113.707 228.244 113.674 228.287 113.624C230.018 111.452 249.834 91.5841 248.805 88.7755Z"
            fill="#FFB8B8" />
        <path
            d="M249.991 81.0203C248.92 76.5035 247.842 71.9622 246.038 67.6854C244.234 63.4085 241.651 59.369 238.018 56.4796C236.856 55.5559 235.558 54.7405 234.102 54.4533C232.646 54.1661 231.005 54.4875 229.983 55.563C228.346 57.284 228.839 60.0464 229.439 62.344C231.209 69.1185 232.978 75.893 234.748 82.6675C239.858 82.1258 244.968 81.5842 250.079 81.0424L249.991 81.0203Z"
            fill="#42563D" />
        <path
            d="M233.131 36.6965C232.681 33.7404 232.211 30.7595 231.153 27.976C230.096 25.1925 228.392 22.5854 225.947 21.0085C222.077 18.5121 217.066 18.9935 212.726 20.4296C209.37 21.5402 206.094 23.2281 203.727 25.9419C201.361 28.6556 200.031 32.5278 200.912 36.0761C205.541 34.9824 210.17 33.8887 214.799 32.795L214.292 33.1531C215.812 33.911 217.139 35.0052 218.173 36.3527C219.207 37.7001 219.92 39.2654 220.259 40.9297C220.59 42.6143 220.543 44.3513 220.12 46.0152C219.697 47.6791 218.91 49.2283 217.815 50.5507C220.972 49.4307 224.129 48.3108 227.286 47.1909C229.235 46.4997 231.32 45.7032 232.476 43.9301C233.816 41.8744 233.504 39.1498 233.131 36.6965Z"
            fill="#2E412F" />
    </g>
    <defs>
        <clipPath id="clip0_209_35872">
            <rect width="321.112" height="240" fill="white" transform="translate(0.443359)" />
        </clipPath>
    </defs>
</svg>