<svg width="152" height="44" viewBox="0 0 152 44" fill="none" xmlns="http://www.w3.org/2000/svg">
    <path
        d="M151.4 25.3333C151.16 26.52 150.947 27.72 150.573 28.8666C149.827 31.1466 148.893 33.32 147.293 35.16C147.04 35.4533 146.76 35.6666 146.4 35.7866C144.8 36.3333 143.133 36.5866 141.453 36.7333C140.533 36.8133 139.613 36.8266 138.707 36.8266C138.373 36.8266 138.253 36.72 138.307 36.3866C138.533 35.0533 138.72 33.7066 139.053 32.4C139.293 31.4533 139.92 30.84 140.8 30.4666C141.813 30.04 142.6 29.3466 142.933 28.3066C143.773 25.68 143.613 23.12 142.24 20.6933C141.853 20.0133 141.307 19.48 140.52 19.28C139.48 19.0133 138.653 19.48 137.947 20.16C136.427 21.64 135.547 23.4666 135.24 25.5733C135.107 26.48 135.053 27.36 135.413 28.24C135.64 28.8133 135.96 29.3333 136.453 29.7066C137.427 30.4533 137.8 31.4266 137.667 32.6133C137.52 33.8266 137.347 35.0533 137.187 36.2666C137.147 36.5333 137.067 36.7466 136.72 36.7066C134.413 36.4666 132.2 35.9466 130.293 34.5333C128.68 33.3333 127.733 31.68 127.373 29.7466C126.693 26.0533 127.107 22.4666 128.773 19.0666C129.187 18.2266 129.747 17.48 130.32 16.7333C130.453 16.5466 130.64 16.44 130.853 16.3733C133.027 15.68 135.267 15.28 137.533 15.1066C139.413 14.96 141.293 14.92 143.16 15.2933C144.88 15.64 146.547 16.16 148.013 17.16C149.853 18.4266 150.933 20.1733 151.32 22.3733C151.347 22.5066 151.373 22.64 151.413 22.7866C151.4 23.6533 151.4 24.4933 151.4 25.3333Z"
        fill="#009838" />
    <path
        d="M70.2401 0.133748C71.1601 0.667082 71.0668 1.53375 71.0001 2.40042C70.5868 7.32042 70.7068 12.2537 70.7334 17.1737C70.7601 20.8137 70.9334 24.4404 71.1068 28.0804C71.1068 28.2004 71.1601 28.3338 71.1468 28.4538C71.0134 29.2938 71.4935 29.6004 72.2268 29.7204C72.6668 29.8004 73.0935 29.9738 73.5201 30.1071C73.6535 30.1471 73.8268 30.1738 73.8535 30.3338C73.9201 30.8538 73.8668 31.3604 73.6935 31.8404C73.5601 32.1871 73.1868 32.1738 72.8801 32.2004C71.6001 32.3071 70.3201 32.2938 69.0535 32.2004C67.4268 32.0938 65.8134 32.2138 64.2001 32.2938C62.6934 32.3604 61.1868 32.4538 59.6801 32.5471C59.4401 32.5604 59.3468 32.4404 59.2801 32.2404C59.1468 31.8271 59.0934 31.3871 59.0268 30.9604C58.9868 30.6938 59.1068 30.5604 59.3601 30.4938C59.8934 30.3738 60.4134 30.2271 60.9468 30.0938C61.2134 30.0271 61.3468 29.9071 61.3601 29.6271C61.4801 27.5871 61.4401 25.5604 61.3868 23.5204C61.3734 23.2404 61.3601 22.9604 61.3601 22.6804C61.3468 19.8404 61.2401 16.9871 61.0534 14.1471C60.8534 10.9604 60.6401 7.76042 60.1468 4.58708C60.0801 4.16041 59.9068 3.96042 59.4801 3.89375C59.0534 3.82708 58.6268 3.69375 58.2001 3.60042C57.9068 3.53375 57.7601 3.38708 57.7868 3.08042C57.7868 3.00042 57.7868 2.92041 57.8001 2.85375C57.9068 1.64041 57.9201 1.64042 59.1201 1.48042C62.6534 1.01375 66.1868 0.560417 69.7334 0.160417C69.8134 0.147083 69.8801 0.120417 69.9601 0.09375C70.0401 0.13375 70.1334 0.133748 70.2401 0.133748Z"
        fill="#009838" />
    <path
        d="M78.6001 38.2401C76.7467 38.2401 74.8934 38.2135 73.0401 38.2401C70.0001 38.2801 66.9601 38.3468 63.9334 38.4268C61.2667 38.4935 58.6134 38.5735 55.9467 38.7068C52.1734 38.8935 48.3867 39.0934 44.6267 39.4134C40.2667 39.7734 35.9201 40.2801 31.6001 40.9468C30.0401 41.1868 28.4934 41.4535 26.9467 41.6935C26.1601 41.8135 25.5867 41.4935 25.2267 40.7735C23.4134 37.1601 21.6267 33.5201 20.1067 29.7735C19.6401 28.6135 19.0667 27.5068 18.4667 26.4134C18.3067 26.1334 18.1067 26.0001 17.8001 25.9868C17.3601 25.9868 16.9334 25.9735 16.4934 25.9601C15.9334 25.9601 15.9201 25.9735 16.0534 26.5068C16.5867 28.6801 17.1201 30.8535 17.6667 33.0268C17.8667 33.8535 18.0667 34.6935 18.2667 35.5201C18.4134 36.1335 18.4134 36.1335 17.8001 36.2268C15.5601 36.5601 13.3334 36.9201 11.1201 37.3468C9.88006 37.5868 8.64006 37.8134 7.40006 38.0801C7.00006 38.1601 6.77339 38.0934 6.62672 37.6801C6.12006 36.3068 6.10672 36.3068 7.46672 35.7735C8.37339 35.4135 8.41339 35.4135 8.30672 34.4401C8.04006 31.9335 7.62672 29.4535 7.18672 26.9735C6.25339 21.7334 5.34672 16.4934 4.30672 11.2801C4.04006 9.94678 4.04006 9.94678 2.70672 9.80012C2.18672 9.74678 1.65339 9.66679 1.13339 9.62679C0.866724 9.60012 0.746723 9.48012 0.706723 9.22679C0.640057 8.81345 0.73339 8.41345 0.786724 8.02679C0.826724 7.76012 1.09339 7.73345 1.29339 7.68012C3.65339 7.04012 6.01339 6.40012 8.37339 5.76012C9.33339 5.50679 10.3067 5.28012 11.2667 5.00012C11.6801 4.88012 12.0401 4.92012 12.4267 5.12012C13.6801 5.77345 13.6534 5.77345 13.7867 7.17345C14.0267 9.60012 14.3067 12.0268 14.5734 14.4535C14.8401 16.8535 15.0934 19.2401 15.3601 21.6401C15.4267 22.2134 15.4934 22.7868 15.5467 23.3601C15.5734 23.6001 15.6534 23.6801 15.9067 23.6401C16.4267 23.5468 16.9467 23.4801 17.4801 23.4268C17.7867 23.4001 17.9201 23.2401 17.9467 22.9468C18.1067 21.3734 18.2667 19.7868 18.4134 18.2134C18.6134 16.1601 18.8134 14.0934 19.0134 12.0401C19.0667 11.4268 19.1467 10.8001 19.1601 10.1868C19.1734 9.76012 19.3467 9.58678 19.7601 9.52012C22.3601 9.12012 24.9601 8.70679 27.5601 8.29345C28.2801 8.17345 29.0134 8.09345 29.7334 7.96012C30.0401 7.90679 30.1867 8.01345 30.3067 8.29345C30.8401 9.58679 30.8267 9.77345 29.5334 10.2668C28.6134 10.6135 28.2534 11.1868 28.0534 12.1068C27.2267 15.8534 26.3334 19.6001 25.4534 23.3335C25.3867 23.6401 25.4001 23.8535 25.7467 23.9201C25.9601 23.9601 26.0801 24.1335 26.2134 24.2935C27.2401 25.5201 27.9601 26.9335 28.8667 28.2401C30.6801 30.8535 32.0401 33.7068 33.5334 36.4801C33.6267 36.6535 33.7467 36.8268 33.8267 37.0135C34.0534 37.4801 34.4267 37.6668 34.9334 37.6268C36.2267 37.5201 37.5067 37.4135 38.8001 37.3068C40.5334 37.1601 42.2801 37.0135 44.0134 36.8801C46.1601 36.7201 48.2934 36.5735 50.4401 36.4401C51.7334 36.3601 53.0267 36.2935 54.3067 36.2268C58.2134 36.0668 62.1201 35.9068 66.0267 35.8268C71.8801 35.6935 77.7467 35.7468 83.6001 35.7868C85.6401 35.8001 87.6801 35.8668 89.7201 35.9601C93.2401 36.1201 96.7467 36.2268 100.267 36.4801C102.747 36.6535 105.24 36.7868 107.72 36.9734C110.053 37.1468 112.373 37.3735 114.693 37.6001C117.24 37.8401 119.773 38.0935 122.307 38.3735C125.107 38.6935 127.907 39.0401 130.693 39.4134C134.813 39.9601 138.92 40.5735 143.027 41.2535C144.227 41.4535 145.427 41.6535 146.613 41.8668C147.267 41.9868 147.547 42.3068 147.467 42.8134C147.347 43.5201 147.013 43.8001 146.307 43.6935C143.72 43.3201 141.133 42.9201 138.547 42.5468C135.16 42.0535 131.773 41.5601 128.36 41.1868C125.067 40.8135 121.773 40.4401 118.467 40.1068C116.173 39.8801 113.88 39.6935 111.587 39.5201C108.64 39.2935 105.693 39.0935 102.733 38.8935C101.48 38.8135 100.213 38.7468 98.9601 38.6935C94.7067 38.5201 90.4667 38.3601 86.2134 38.2801C83.6801 38.2401 81.1467 38.2801 78.6001 38.2401Z"
        fill="#009838" />
    <path
        d="M98.8001 32.6269C96.1468 32.5603 93.5068 32.4936 90.8535 32.4403C90.2001 32.4269 89.8135 31.9203 89.3335 31.5869C89.1735 31.4669 89.3068 31.2669 89.3601 31.1069C89.8268 29.6536 90.2801 28.2003 90.7468 26.7469C90.8268 26.5069 90.9468 26.2936 90.5735 26.1469C90.2268 26.0136 90.1068 26.1603 89.9735 26.4269C89.1735 28.0936 88.3335 29.7469 87.5468 31.4269C87.2935 31.9603 86.9468 32.2669 86.3468 32.3069C85.0935 32.4136 83.8401 32.5736 82.5735 32.5336C82.0135 32.5203 81.5201 32.2536 81.0268 32.0269C77.8668 30.6536 76.1868 28.1469 75.5468 24.8403C74.7468 20.7069 75.8535 17.0936 78.5201 13.8936C79.5868 12.6136 80.8268 11.5336 82.2268 10.6269C82.4935 10.4536 82.7735 10.3603 83.1068 10.3603C85.0801 10.3736 87.0535 10.5069 89.0268 10.7069C89.3335 10.7336 89.6001 10.7603 89.5735 10.3203C89.4801 8.37361 89.4001 6.44027 89.3335 4.49361C89.3201 4.08027 89.1201 3.9336 88.7468 3.8536C87.9601 3.6936 87.1735 3.48027 86.3735 3.32027C86.0001 3.24027 85.8668 3.05361 85.9468 2.69361C85.9601 2.60027 85.9868 2.50694 86.0001 2.41361C86.1735 1.33361 86.1735 1.34694 87.2268 1.28027C90.1868 1.08027 93.1601 0.866938 96.1201 0.653604C96.7201 0.613604 97.3335 0.613606 97.9335 0.546939C98.4001 0.493606 98.7068 0.76027 99.0668 0.973604C99.8801 1.4536 100.04 2.0536 99.8935 2.9736C99.4668 5.76027 99.2801 8.56027 99.1068 11.3736C98.8668 15.2403 98.6935 19.1069 98.6135 22.9736C98.5735 25.1069 98.6001 27.2269 98.6535 29.3603C98.6668 29.8936 98.8268 30.2403 99.4001 30.3603C99.7335 30.4269 100.04 30.6003 100.373 30.6936C100.76 30.7869 100.867 31.0136 100.813 31.3869C100.6 32.7203 100.947 32.5869 99.5335 32.5869C99.2935 32.6269 99.0401 32.6269 98.8001 32.6269ZM85.2935 22.5336C85.2801 24.2669 85.3468 25.9869 85.6135 27.6936C85.6401 27.8936 85.6401 28.1603 85.9335 28.1869C86.2268 28.2269 86.5335 28.2403 86.7068 27.9069C86.8135 27.7069 86.9468 27.5069 87.0535 27.2936C87.6001 26.2269 88.0801 25.1336 88.6001 24.0536C89.0801 23.0536 89.3335 22.0403 89.3201 20.9069C89.2935 19.1869 89.3601 17.4536 89.4268 15.7336C89.5068 13.7869 89.8135 13.9203 87.7601 13.2003C86.2001 12.6536 86.3335 12.5869 85.9735 14.2269C85.3868 16.9736 85.3201 19.7603 85.2935 22.5336Z"
        fill="#009838" />
    <path
        d="M47.5599 11.4936C49.0399 11.4269 50.8133 11.6002 52.4933 12.3469C53.6266 12.8536 54.5066 13.6402 55.1866 14.6536C55.3066 14.8269 55.3599 15.0136 55.3466 15.2269C55.1599 18.3469 55.2266 21.4669 55.4533 24.5869C55.5733 26.2936 55.7733 27.9869 56.1199 29.6669C56.1866 30.0269 56.3333 30.2136 56.7066 30.2802C57.1466 30.3602 57.5866 30.4802 58.0266 30.5869C58.2666 30.6402 58.3866 30.7736 58.3999 31.0402C58.4799 32.3336 58.4799 32.3602 57.1733 32.4669C55.5333 32.6002 53.8799 32.6936 52.2399 32.8269C51.1333 32.9202 50.0266 32.9736 48.9466 33.1602C48.1733 33.2936 47.6266 32.9336 47.0533 32.5736C46.8266 32.4269 46.9466 32.2002 46.9866 32.0136C47.2933 30.5469 47.5999 29.0936 47.9066 27.6269C47.9599 27.3602 48.0533 27.1202 47.6666 26.9869C47.2533 26.8536 47.1866 27.1469 47.0933 27.4002C46.4266 29.1602 45.7466 30.9202 45.0933 32.6802C44.9466 33.0802 44.7066 33.3069 44.2799 33.4269C43.2266 33.7202 42.1733 33.9736 41.0799 34.0936C38.2933 34.3736 34.8133 32.5602 33.9733 29.5869C33.8533 29.1602 33.7999 28.7336 33.9199 28.3069C34.2933 26.9869 34.7999 25.7202 35.4399 24.5069C35.6399 24.1336 35.9199 23.8802 36.3066 23.7069C38.6399 22.7336 41.0133 21.8936 43.4399 21.2002C44.0533 21.0269 44.6799 20.8669 45.2933 20.7336C45.5999 20.6669 45.7066 20.5202 45.6799 20.2136C45.5199 18.3202 45.3733 16.4402 45.2399 14.5469C45.2133 14.2536 45.0933 14.1469 44.8133 14.1336C44.1599 14.0936 43.5066 14.0402 42.8533 14.0536C42.1733 14.0669 42.1199 14.1336 42.0799 14.8002C41.9733 16.3469 41.8399 17.8936 41.7333 19.4536C41.7066 19.7869 41.5599 19.9069 41.2399 19.9336C39.6933 20.0536 38.1333 20.1869 36.5866 20.3336C36.2533 20.3602 36.1066 20.2802 36.0133 19.9602C35.5066 18.2402 34.9866 16.5336 34.4799 14.8136C34.3333 14.3069 34.8399 13.3602 35.3199 13.2269C39.2399 12.2002 43.1733 11.4802 47.5599 11.4936ZM45.9466 23.4936C45.9333 23.0802 45.7066 23.0936 45.4266 23.1602C44.5199 23.4002 43.6799 23.8002 42.8399 24.2269C42.6266 24.3336 42.5599 24.4802 42.5866 24.7202C42.6533 25.2136 42.6933 25.7069 42.7466 26.2002C42.8666 27.1602 43.0399 28.1069 43.2933 29.0402C43.3466 29.2269 43.3733 29.4136 43.6133 29.4402C43.8399 29.4536 43.9333 29.2936 44.0133 29.1202C44.0666 29.0136 44.1199 28.8936 44.1733 28.7869C44.7866 27.2402 45.3333 25.6669 45.7999 24.0802C45.8666 23.8536 45.9066 23.6536 45.9466 23.4936Z"
        fill="#009838" />
    <path
        d="M102.293 23.5072C102.373 21.2006 102.6 18.8139 103.693 16.6139C104.08 15.8272 104.547 15.0939 105.04 14.3739C105.16 14.2006 105.333 14.1072 105.533 14.0406C107.96 13.0939 110.48 12.5872 113.067 12.2539C115.32 11.9739 117.547 12.0539 119.747 12.6272C121.773 13.1606 123.573 14.0672 124.867 15.7606C125.867 17.0806 126.413 18.5872 126.453 20.2139C126.56 24.4272 125.44 28.2939 123.013 31.7606C122.76 32.1206 122.44 32.3472 122.04 32.5072C120.107 33.2672 118.093 33.6406 116.04 33.8539C115.533 33.9072 115.013 33.9472 114.507 33.9472C114.2 33.9472 114.08 33.8272 114.12 33.5206C114.28 32.2806 114.413 31.0539 114.573 29.8139C114.707 28.8939 115.107 28.0939 115.973 27.6672C117.573 26.8806 118.413 25.6272 118.547 23.8539C118.72 21.6672 118.4 19.6006 117.187 17.7339C117.133 17.6539 117.08 17.5739 117.027 17.5072C115.813 15.9472 114.12 15.8939 112.813 17.3739C111.16 19.2406 110.387 21.4539 110.4 23.9206C110.413 25.2006 110.88 26.2939 111.973 27.0539C113.147 27.8672 113.36 29.0406 113.253 30.3472C113.173 31.3872 113.067 32.4272 113.013 33.4672C112.987 33.8406 112.867 33.9739 112.48 33.9606C110.827 33.9206 109.227 33.6539 107.68 33.0406C105.067 32.0139 103.48 30.0672 102.773 27.3739C102.44 26.1472 102.32 24.8806 102.293 23.5072Z"
        fill="#009838" />
</svg>