<svg width="388" height="283" viewBox="0 0 388 283" fill="none" xmlns="http://www.w3.org/2000/svg">
    <g clip-path="url(#clip0_209_42611)">
        <path
            d="M289.312 184.126C289.926 184.155 290.447 183.679 290.475 183.064C290.49 182.736 290.36 182.417 290.119 182.194L290.042 181.891L290.073 181.818C290.717 180.295 292.471 179.583 293.992 180.228C294.715 180.534 295.288 181.113 295.589 181.838C296.491 184.013 297.639 186.192 297.922 188.493C298.047 189.509 297.994 190.54 297.767 191.538C299.886 186.911 300.986 181.882 300.993 176.791C300.994 175.514 300.923 174.237 300.781 172.968C300.664 171.927 300.501 170.894 300.293 169.868C299.157 164.302 296.719 159.084 293.178 154.645C291.464 153.709 290.078 152.269 289.207 150.52C288.891 149.891 288.668 149.22 288.544 148.527C288.738 148.553 288.934 148.569 289.128 148.581C289.188 148.585 289.251 148.588 289.311 148.591L289.334 148.592C289.943 148.619 290.458 148.147 290.486 147.538C290.498 147.268 290.41 147.003 290.24 146.793C290.157 146.69 290.073 146.587 289.99 146.484C289.863 146.325 289.733 146.17 289.606 146.011C289.592 145.996 289.578 145.98 289.565 145.964C289.419 145.783 289.273 145.605 289.128 145.424C289.394 145.011 289.752 144.665 290.173 144.412C291.634 143.556 293.65 144.149 294.706 145.472C295.707 146.869 296.033 148.641 295.596 150.304C295.235 151.711 294.637 153.046 293.828 154.251C293.907 154.353 293.989 154.451 294.068 154.553C295.517 156.417 296.779 158.419 297.837 160.53C297.58 158.165 297.887 155.773 298.734 153.55C299.591 151.478 301.199 149.734 302.615 147.943C303.661 146.599 305.597 146.358 306.939 147.405C307.583 147.908 308.002 148.646 308.103 149.457L308.111 149.536C307.901 149.655 307.695 149.781 307.494 149.915C306.8 150.379 306.614 151.318 307.077 152.012C307.312 152.364 307.684 152.602 308.103 152.666L308.134 152.671C308.059 153.43 307.926 154.182 307.737 154.921C306.632 159.09 303.839 162.608 300.033 164.63C299.909 164.693 299.789 164.756 299.665 164.817C300.729 167.833 301.395 170.975 301.649 174.164C301.793 176.045 301.784 177.935 301.624 179.815L301.633 179.748C302.039 177.658 303.153 175.772 304.787 174.408C307.214 172.413 310.642 171.678 313.26 170.073C314.066 169.556 315.138 169.79 315.655 170.596C315.877 170.942 315.969 171.355 315.915 171.762L315.905 171.832C315.514 171.991 315.134 172.174 314.767 172.381C314.557 172.5 314.351 172.626 314.149 172.759C313.456 173.223 313.269 174.162 313.732 174.856C313.968 175.209 314.34 175.446 314.758 175.511L314.789 175.516C314.811 175.519 314.83 175.522 314.852 175.525C314.186 177.119 313.25 178.586 312.086 179.862C309.179 182.984 305.116 184.769 300.854 184.796H300.851C300.278 187.287 299.449 189.711 298.375 192.03H289.533C289.502 191.932 289.473 191.83 289.444 191.732C290.263 191.783 291.085 191.734 291.891 191.586C291.235 190.78 290.579 189.968 289.923 189.162C289.908 189.147 289.895 189.131 289.882 189.114C289.549 188.702 289.213 188.293 288.88 187.88L288.88 187.88C288.862 186.615 289.007 185.354 289.311 184.127L289.312 184.126Z"
            fill="#F2F2F2" />
        <path
            d="M262.562 102.915C262.562 107.788 264.997 112.746 269.865 112.746C274.732 112.746 281.448 109.217 279.937 101.654C278.982 96.8762 276.243 94.0918 271.375 94.0918C266.508 94.0918 262.562 98.042 262.562 102.915V102.915V102.915Z"
            fill="#2E412E" />
        <path
            d="M282.98 172.536C281.978 171.423 282.067 169.708 283.178 168.705C283.297 168.598 283.424 168.501 283.56 168.417L281.429 159.016L286.113 160.78L287.418 169.437C288.127 170.765 287.627 172.418 286.3 173.128C285.189 173.722 283.817 173.477 282.98 172.536V172.536Z"
            fill="#FFB6B6" />
        <path
            d="M273.039 139.213L276.308 139.546C276.308 139.546 275.453 144.394 276.79 145.486C278.127 146.578 277.588 146.573 277.58 147.382C277.663 148.557 278.24 149.641 279.169 150.365C280.239 151.185 282.464 165.782 282.464 165.782L287.314 165.828C287.17 164.573 287.182 163.304 287.35 162.052C287.638 160.166 289.092 155.416 288.56 154.602C288.029 153.787 288.309 152.289 288.324 150.671C288.34 149.052 286.027 150.841 286.053 148.143C286.079 145.446 283.112 128.519 283.405 126.094C283.698 123.668 280.755 121.482 280.755 121.482L278.06 121.456L273.039 139.213V139.213Z"
            fill="#E6E6E6" />
        <path
            d="M238.338 116.448C238.03 117.834 238.902 119.207 240.286 119.516C240.434 119.548 240.584 119.568 240.735 119.575L243.357 128.323L246.398 124.681L243.442 116.932C243.408 115.505 242.225 114.376 240.8 114.41C239.607 114.438 238.589 115.281 238.338 116.448Z"
            fill="#FFB6B6" />
        <path
            d="M266.023 119.298C266.023 119.298 259.683 116.919 256.246 129.95L251.684 134.681L247.851 127.747L248.358 126.102L245.395 119.378L240.316 122.296L241.566 126.912L241.355 129.194L242.569 130.614L244.556 137.949L245.799 140.345C245.799 140.345 247.366 143.414 250.102 143.919C250.831 144.056 251.578 144.077 252.314 143.982C254.064 143.708 255.686 142.897 256.956 141.662C260.339 138.642 263.538 135.422 266.537 132.019L266.023 119.298H266.023Z"
            fill="#E6E6E6" />
        <path
            d="M274.525 141.119L274.974 143.258L275.355 151.149L260.037 149.073L258.86 139.935L260.486 137.261L274.525 141.119Z"
            fill="#FFB6B6" />
        <path
            d="M269.557 112.619C273.561 112.619 276.807 109.369 276.807 105.361C276.807 101.352 273.561 98.1025 269.557 98.1025C265.553 98.1025 262.307 101.352 262.307 105.361C262.307 109.369 265.553 112.619 269.557 112.619Z"
            fill="#FFB6B6" />
        <path
            d="M281.704 122.333C280.508 119.508 278.032 117.428 275.045 116.738L275.017 116.732L273.582 114.798L267.758 115.383L266.693 117.568L263.931 119.213H263.926L263.921 119.219L262.474 120.082L257.676 125.705L257.671 125.711C256.247 126.662 255.281 128.162 255.002 129.853C254.929 130.335 254.905 130.824 254.931 131.312C255.089 134.301 256.956 136.962 257.212 137.317L257.84 140.853L257.965 141.58L259.095 141.744L275.012 144.022L275.454 144.088L275.585 144.104L276.044 142.918V142.908L280.481 131.284L282.474 126.099C282.479 124.804 282.217 123.522 281.704 122.333Z"
            fill="#E6E6E6" />
        <path
            d="M277.144 107.263C277.078 107.253 277.012 107.239 276.947 107.229C275.816 107.028 274.685 106.831 273.558 106.626L273.454 104.068L272.088 106.36C268.972 107.395 266.056 106.81 263.314 105.518C262.409 105.088 261.531 104.604 260.685 104.068C260.095 100.464 261.584 97.6234 265.406 97.2608C265.525 97.2496 265.61 97.15 265.714 97.0981L265.717 97.0947V97.0946C265.894 97.0115 266.074 96.9319 266.253 96.8592C269.127 95.7349 272.391 96.3684 274.637 98.4864C276.905 100.797 277.849 104.101 277.144 107.263V107.263Z"
            fill="#2E412E" />
        <path
            d="M284.286 165.798C283.965 163.654 283.439 161.546 282.714 159.503V159.498C282.107 157.77 281.351 156.099 280.454 154.503C280.451 154.503 280.449 154.501 280.449 154.498V154.498C279.157 152.092 277.473 149.92 275.465 148.071L275.252 147.847H275.198L259.827 147.47H259.668L259.494 147.465C259.494 147.465 259.428 147.656 259.303 148.017C259.298 148.039 259.291 148.061 259.281 148.082C259.237 148.224 259.183 148.388 259.117 148.569C259.079 148.689 259.035 148.815 258.992 148.951C258.943 149.099 258.888 149.252 258.833 149.416C258.408 150.689 257.785 152.536 257.021 154.826C256.907 155.175 256.786 155.536 256.661 155.913C253.746 164.695 249.057 179.045 244.964 192.646H259.483C260.891 188.569 262.387 182.755 262.387 182.755C262.971 182.061 262.938 180.176 262.938 180.176L267.501 175.378L270.787 192.646H284.575L284.679 173.427V173.263C284.786 170.768 284.655 168.268 284.286 165.798V165.798Z"
            fill="#CCCCCC" />
        <path
            d="M274.366 96.9153V96.9214C274.365 97.3013 274.414 97.6797 274.51 98.0471C274.526 98.1115 274.544 98.179 274.565 98.2434V98.2465C274.982 99.5766 275.997 100.635 277.308 101.105C277.403 101.142 277.501 101.173 277.599 101.2C277.805 101.26 278.016 101.303 278.23 101.329C278.422 101.356 278.615 101.37 278.809 101.369C278.96 101.37 279.112 101.363 279.262 101.348C279.615 101.312 279.962 101.233 280.295 101.111C280.347 101.096 280.398 101.078 280.448 101.056C280.473 101.047 280.498 101.037 280.522 101.026C282.787 100.076 283.855 97.4678 282.907 95.1996C282.878 95.1318 282.848 95.0646 282.817 94.9982L282.813 94.9951C282.596 94.5385 282.3 94.1233 281.94 93.7681C281.137 92.9676 280.784 90.9612 279.564 90.9612C279.506 90.9602 279.448 90.9622 279.39 90.9673C278.572 90.9949 277.059 92.7621 276.416 93.1792C275.938 93.4814 275.524 93.8743 275.196 94.3356C274.855 94.8102 274.611 95.3483 274.479 95.9184C274.404 96.2454 274.366 96.5798 274.366 96.9153H274.366Z"
            fill="#2E412E" />
        <path
            d="M279.794 95.3661C280.484 96.1703 281.564 96.4828 282.539 96.9013C286.031 98.4348 288.541 101.595 289.247 105.346C289.516 106.851 289.481 108.409 289.907 109.876C290.33 111.343 291.377 112.783 292.881 113.038C293.898 113.211 294.918 112.818 295.874 112.43C296.401 112.218 296.927 112.006 297.453 111.792C296.904 110.413 296.356 109.034 295.809 107.655C296.689 108.957 297.711 110.155 298.858 111.228C300.744 110.466 302.632 109.705 304.521 108.944C299.873 108.961 300.666 104.444 299.626 99.9113C299.055 97.4206 294.187 95.7342 293.233 93.3645C291.742 89.6494 287.526 87.8475 283.815 89.3397C282.216 89.9828 280.898 91.1757 280.099 92.7041C279.145 93.0847 279.117 94.572 279.794 95.3661V95.3661Z"
            fill="#2E412E" />
        <path
            d="M260.051 148.575C257.881 149.141 256.124 150.735 255.346 152.841C255.071 153.437 255.078 154.124 255.366 154.714C255.591 155.135 256.091 155.325 256.538 155.159C256.987 154.917 257.345 154.535 257.558 154.071C257.871 153.476 258.14 152.859 258.363 152.224C258.727 151.267 259.505 149.669 258.395 148.92C257.46 148.291 256.224 148.535 255.172 148.492C254.036 148.445 252.774 148.01 252.37 146.831C251.978 145.685 252.898 144.607 253.89 144.171C255.101 143.668 256.482 143.8 257.576 144.522C258.641 145.261 259.402 146.363 259.717 147.622C259.765 147.825 259.64 148.029 259.437 148.078C259.244 148.124 259.047 148.013 258.988 147.823C258.71 146.655 257.975 145.647 256.949 145.026C255.929 144.437 254.662 144.487 253.692 145.153C253.183 145.471 252.946 146.088 253.113 146.665C253.369 147.177 253.85 147.538 254.413 147.64C255.612 147.93 256.865 147.555 258.06 147.938C259.172 148.223 259.881 149.313 259.691 150.447C259.567 151.127 259.366 151.791 259.091 152.425C258.858 153.078 258.585 153.715 258.275 154.334C257.801 155.232 256.945 156.203 255.817 155.94C254.531 155.64 254.225 154.137 254.501 153.031C255.247 150.479 257.279 148.509 259.851 147.845C260.054 147.797 260.258 147.922 260.306 148.126C260.352 148.319 260.241 148.515 260.051 148.575V148.575Z"
            fill="#CCCCCC" />
        <path
            d="M316.839 193.193H227.322C225.213 193.19 223.503 191.479 223.501 189.367V67.5078C223.503 65.3962 225.213 63.685 227.322 63.6826H316.839C318.949 63.685 320.658 65.3962 320.66 67.5078V189.367C320.658 191.479 318.949 193.19 316.839 193.193ZM227.322 64.7755C225.815 64.7773 224.594 65.9996 224.593 67.5078V189.367C224.594 190.876 225.815 192.098 227.322 192.1H316.839C318.346 192.098 319.567 190.876 319.569 189.367V67.5078C319.567 65.9996 318.346 64.7773 316.839 64.7755H227.322Z"
            fill="#3D563E" />
        <path
            d="M331.066 19.1336H77.0905C76.5459 19.122 76.1138 18.6705 76.1255 18.1253C76.1368 17.5965 76.5623 17.1705 77.0905 17.1592H331.066C331.61 17.1708 332.042 17.6223 332.031 18.1675C332.019 18.6963 331.594 19.1223 331.066 19.1336Z"
            fill="#CACACA" />
        <path
            d="M380.404 136.361H351.475C347.556 136.361 344.379 133.181 344.379 129.257C344.379 125.334 347.556 122.153 351.475 122.153H380.404C384.323 122.153 387.5 125.334 387.5 129.257C387.5 133.181 384.323 136.361 380.404 136.361Z"
            fill="#149548" />
        <path
            d="M172.974 166.093C172.36 166.122 171.839 165.646 171.81 165.031C171.795 164.703 171.926 164.384 172.167 164.161L172.243 163.857L172.213 163.785C171.569 162.262 169.814 161.55 168.293 162.195C167.571 162.501 166.997 163.079 166.697 163.805C165.795 165.98 164.646 168.159 164.363 170.459C164.239 171.476 164.291 172.507 164.519 173.505C162.4 168.878 161.299 163.848 161.292 158.758C161.292 157.48 161.363 156.204 161.505 154.935C161.622 153.894 161.785 152.861 161.993 151.835C163.128 146.268 165.567 141.051 169.108 136.611C170.821 135.675 172.207 134.236 173.079 132.487C173.394 131.858 173.618 131.187 173.741 130.494C173.548 130.52 173.351 130.535 173.158 130.548C173.098 130.551 173.034 130.555 172.974 130.558L172.951 130.559C172.343 130.586 171.827 130.114 171.8 129.505C171.788 129.235 171.875 128.969 172.045 128.759C172.129 128.656 172.212 128.554 172.296 128.451C172.423 128.292 172.553 128.137 172.679 127.978C172.694 127.963 172.708 127.947 172.721 127.931C172.866 127.75 173.012 127.572 173.158 127.391C172.892 126.978 172.534 126.631 172.112 126.379C170.651 125.522 168.635 126.116 167.58 127.439C166.579 128.836 166.252 130.608 166.69 132.271C167.051 133.678 167.649 135.012 168.458 136.218C168.379 136.32 168.296 136.418 168.217 136.519C166.769 138.384 165.506 140.386 164.448 142.497C164.706 140.132 164.398 137.74 163.552 135.517C162.694 133.445 161.086 131.7 159.67 129.909C158.625 128.566 156.689 128.325 155.346 129.372C154.702 129.875 154.284 130.613 154.183 131.424L154.174 131.503C154.384 131.622 154.59 131.748 154.792 131.881C155.485 132.345 155.672 133.284 155.209 133.979C154.973 134.331 154.601 134.569 154.183 134.633L154.152 134.638C154.227 135.397 154.359 136.149 154.548 136.887C155.654 141.057 158.446 144.575 162.253 146.596C162.376 146.66 162.497 146.723 162.62 146.784C161.557 149.8 160.89 152.942 160.636 156.131C160.493 158.012 160.501 159.902 160.662 161.782L160.652 161.715C160.246 159.625 159.133 157.738 157.499 156.375C155.072 154.379 151.643 153.644 149.025 152.04C148.22 151.522 147.147 151.756 146.63 152.563C146.408 152.909 146.316 153.322 146.37 153.729L146.381 153.799C146.771 153.958 147.151 154.141 147.519 154.348C147.729 154.466 147.935 154.592 148.136 154.726C148.83 155.19 149.017 156.129 148.553 156.823C148.318 157.176 147.946 157.413 147.527 157.478L147.497 157.482C147.474 157.486 147.455 157.489 147.433 157.492C148.1 159.086 149.036 160.553 150.2 161.829C153.106 164.951 157.169 166.736 161.432 166.763H161.435C162.007 169.254 162.837 171.678 163.91 173.997H172.752C172.784 173.899 172.813 173.797 172.841 173.699C172.023 173.75 171.201 173.701 170.394 173.553C171.05 172.747 171.706 171.935 172.363 171.129C172.377 171.114 172.391 171.098 172.404 171.081C172.736 170.669 173.072 170.259 173.405 169.847L173.405 169.846C173.423 168.582 173.278 167.321 172.974 166.093L172.974 166.093H172.974Z"
            fill="#F2F2F2" />
        <g opacity="0.38">
            <path
                d="M156.185 153.233C154.819 152.114 154.618 150.097 155.736 148.73C155.855 148.584 155.987 148.449 156.13 148.326L148.904 129.414L154.679 130.639L160.81 148.83C161.873 150.253 161.583 152.269 160.161 153.334C158.972 154.224 157.328 154.182 156.185 153.233V153.233Z"
                fill="#FFB8B8" />
            <path
                d="M159.157 132.52L152.673 105.503L149.884 97.6448C149.881 97.6419 149.879 97.6381 149.878 97.6339C149.424 96.3503 148.474 95.3029 147.242 94.7268C146.009 94.1357 144.589 94.0687 143.306 94.541C143.197 94.579 143.089 94.6228 142.984 94.6721C142.76 94.7746 142.543 94.8914 142.335 95.0219C141.131 95.7814 140.295 97.0059 140.026 98.4044L139.535 100.984L139.327 102.082L146.985 128.88V128.891L149.649 138.225L150.883 142.531V142.536L152.313 147.547L152.345 147.651L155.779 147.421H155.784L156.303 147.383L160.233 147.121L160.8 147.083L159.157 132.52V132.52Z"
                fill="#2E412E" />
            <path
                d="M132.831 87.4121L147.275 116.655L156.413 147.751C137.162 151.509 113.007 159.548 111.269 148.018C112.34 115.872 115.715 105.619 122.683 91.6828L132.831 87.4121Z"
                fill="#2E412E" />
            <path
                d="M152.143 174.067H140.282L135.474 157.799L132.089 173.859C132.078 173.93 132.073 173.996 132.062 174.067H119.42C119.83 169.039 120.578 160.296 120.932 159.056C121.435 157.296 120.932 157.296 119.928 156.29C119.704 156.066 119.628 155.17 119.65 153.919C119.71 149.607 120.883 141.066 120.883 141.066L122.275 138.487L122.755 137.591L147.547 136.716L147.76 136.711L148.219 138.711L148.781 141.175L149.769 145.498L150.681 148.946L150.73 149.121V150.143C150.575 150.499 150.504 150.886 150.522 151.274C150.522 151.624 151.308 162.52 152.143 174.067Z"
                fill="#2E412E" />
            <path
                d="M131.139 91.7489L132.841 87.6719L138.109 87.7645L143.602 95.5438L149.368 119.819C149.368 119.819 151.439 137.552 149.368 138.488C147.297 139.424 122.221 138.926 122.221 138.926C123.382 129.349 124.247 119.607 125.159 113.788C128.173 94.5539 129.596 98.6016 131.139 91.7489Z"
                fill="#149548" />
            <path
                d="M138.109 87.7646C138.109 87.7646 149.457 94.332 149.901 97.7602C150.345 101.188 151.831 143.147 151.831 143.147L147.818 140.551L146.721 125.259C147.486 111.67 145.619 101.541 141.824 93.9488L138.109 87.7646H138.109Z"
                fill="#2E412E" />
            <path
                d="M143.064 79.3523C143.749 75.1312 140.885 71.154 136.669 70.469C132.453 69.784 128.48 72.6506 127.796 76.8717C127.112 81.0928 129.975 85.0699 134.191 85.7549C138.408 86.4399 142.38 83.5733 143.064 79.3523Z"
                fill="#FFB8B8" />
            <path
                d="M125.9 77.6518C126.246 79.2206 126.869 80.7149 127.74 82.064C127.971 82.524 128.317 82.9168 128.743 83.2045C129.189 83.4908 129.775 83.4175 130.137 83.0301L130.325 82.8767C129.956 82.649 129.626 82.3628 129.349 82.0291C129.071 81.6894 128.974 81.236 129.088 80.8118C129.227 80.3833 129.679 80.1414 130.112 80.2642C130.565 80.4421 130.841 81.0978 131.314 80.9967C131.698 80.913 131.778 80.4073 131.778 80.0096C131.764 77.9308 132.767 74.9766 133.544 75.0673C134.329 75.1103 135.115 75.0049 135.861 74.7569C136.608 74.5084 137.396 74.4077 138.181 74.4604C138.237 74.4674 138.293 74.4778 138.352 74.4883C138.478 74.0933 138.651 73.7151 138.868 73.3617C138.843 73.7883 138.864 74.2162 138.93 74.6383C139.555 74.8961 140.201 75.1003 140.86 75.2487C141.578 75.3498 143.156 77.4984 143.23 77.2786C143.355 76.8837 143.529 76.5054 143.745 76.152C143.721 76.5786 143.742 77.0065 143.808 77.4286C143.811 77.446 143.811 77.46 143.815 77.4774C144.163 77.0135 144.376 76.4485 144.257 76.881C145.424 74.2372 144.972 72.3433 143.135 70.1145C142.778 69.6353 142.304 69.2548 141.759 69.0088C141.204 68.7648 140.563 68.8283 140.066 69.1763C138.541 67.7765 136.378 67.3146 134.415 67.9694C132.502 68.6356 131.029 69.0263 130.736 71.0353C129.107 70.857 127.521 71.6301 126.656 73.0234C125.832 74.4161 125.562 76.0687 125.9 77.6518L125.9 77.6518Z"
                fill="#2E412E" />
            <path
                d="M104.228 151.323C103.571 149.682 104.367 147.819 106.006 147.162C106.181 147.092 106.361 147.037 106.545 146.999L109.334 126.943L113.802 130.806L110.402 149.701C110.647 151.461 109.42 153.087 107.662 153.332C106.191 153.537 104.771 152.706 104.228 151.323H104.228Z"
                fill="#FFB8B8" />
            <path
                d="M128.842 97.7872L128.629 95.8418C128.428 94.0452 127.301 92.4855 125.659 91.7325C125.036 91.4429 124.36 91.2848 123.673 91.268H123.667C121.599 91.2197 119.704 92.417 118.858 94.3063L115.452 101.929L106.855 128.351L104.077 142.722L107.079 143.165L111.429 143.804L111.462 143.81L112.461 143.957L126.418 106.558L126.424 106.547L129.033 99.5578L128.842 97.7872H128.842Z"
                fill="#2E412E" />
        </g>
        <path
            d="M180.926 174.613H91.408C89.2988 174.61 87.5896 172.899 87.5872 170.787V48.9277C87.5895 46.8161 89.2988 45.1049 91.408 45.1025H180.926C183.035 45.1049 184.744 46.8161 184.747 48.9277V170.787C184.744 172.899 183.035 174.61 180.926 174.613ZM91.408 46.1955C89.9015 46.1972 88.6806 47.4195 88.6788 48.9277V170.787C88.6806 172.296 89.9015 173.518 91.408 173.52H180.926C182.432 173.518 183.653 172.296 183.655 170.787V48.9277C183.653 47.4195 182.432 46.1972 180.926 46.1955H91.408Z"
            fill="#E6E6E6" />
        <path
            d="M36.5254 136.361H7.59591C3.67695 136.361 0.5 133.181 0.5 129.257C0.5 125.334 3.67695 122.153 7.59591 122.153H36.5254C40.4443 122.153 43.6213 125.334 43.6213 129.257C43.6213 133.181 40.4443 136.361 36.5254 136.361Z"
            fill="#E6E6E6" />
        <path
            d="M50.7173 164.23H21.7878C17.8688 164.23 14.6919 161.05 14.6919 157.126C14.6919 153.203 17.8688 150.022 21.7878 150.022H50.7173C54.6362 150.022 57.8132 153.203 57.8132 157.126C57.8132 161.05 54.6362 164.23 50.7173 164.23Z"
            fill="#E6E6E6" />
        <path d="M66.0192 159.018L66.0034 160.111L121.908 160.92L121.924 159.827L66.0192 159.018Z"
            fill="#E6E6E6" />
        <path
            d="M124.261 162.875C123.216 162.876 122.262 162.28 121.804 161.34C121.143 159.984 121.706 158.348 123.061 157.687C124.415 157.026 126.049 157.589 126.71 158.946C127.37 160.302 126.807 161.937 125.453 162.599C125.081 162.78 124.674 162.874 124.261 162.875V162.875ZM124.256 158.503C123.351 158.504 122.618 159.239 122.619 160.144C122.62 160.393 122.676 160.638 122.785 160.861C123.182 161.674 124.162 162.01 124.974 161.613C125.786 161.215 126.122 160.234 125.725 159.421C125.45 158.859 124.88 158.503 124.256 158.503H124.256Z"
            fill="#E6E6E6" />
        <path d="M54.0106 130.056L53.9949 131.149L109.899 131.958L109.915 130.865L54.0106 130.056Z"
            fill="#E6E6E6" />
        <path
            d="M112.253 133.912C111.208 133.913 110.254 133.318 109.795 132.378C109.134 131.021 109.696 129.385 111.051 128.723C112.407 128.061 114.041 128.624 114.702 129.98C115.364 131.337 114.801 132.974 113.446 133.636C113.075 133.817 112.667 133.912 112.253 133.912ZM110.777 131.899C111.173 132.712 112.153 133.05 112.966 132.653C113.778 132.256 114.116 131.275 113.719 130.461C113.323 129.648 112.343 129.31 111.53 129.707C111.14 129.898 110.841 130.236 110.7 130.646C110.559 131.057 110.586 131.508 110.777 131.899Z"
            fill="#E6E6E6" />
        <path
            d="M58.3589 109.038H29.4294C25.5104 109.038 22.3335 105.857 22.3335 101.934C22.3335 98.0106 25.5104 94.8301 29.4294 94.8301H58.3589C62.2778 94.8301 65.4548 98.0106 65.4548 101.934C65.4548 105.857 62.2778 109.038 58.3589 109.038Z"
            fill="#E6E6E6" />
        <path d="M75.8444 102.733L75.8286 103.826L131.733 104.635L131.749 103.542L75.8444 102.733Z"
            fill="#E6E6E6" />
        <path
            d="M134.086 106.59C133.042 106.591 132.088 105.995 131.629 105.056C130.967 103.699 131.53 102.063 132.885 101.401C134.24 100.739 135.875 101.302 136.536 102.658C137.197 104.015 136.635 105.651 135.28 106.313C134.908 106.495 134.5 106.59 134.086 106.59ZM132.61 104.576C133.007 105.39 133.987 105.728 134.799 105.331C135.612 104.934 135.949 103.953 135.553 103.139C135.156 102.326 134.176 101.988 133.364 102.385C132.973 102.575 132.675 102.913 132.534 103.324C132.392 103.735 132.42 104.186 132.61 104.576Z"
            fill="#E6E6E6" />
        <path d="M281.558 126.332L281.542 127.425L337.446 128.233L337.462 127.14L281.558 126.332Z"
            fill="#3D563E" />
        <path
            d="M279.211 129.842C277.701 129.846 276.474 128.623 276.47 127.112C276.467 125.6 277.688 124.372 279.198 124.368C280.708 124.365 281.935 125.587 281.938 127.099C281.941 128.147 281.345 129.105 280.405 129.565C280.033 129.747 279.625 129.841 279.211 129.842V129.842ZM279.207 125.468C278.302 125.468 277.568 126.203 277.568 127.109C277.568 128.015 278.302 128.75 279.207 128.75C280.112 128.75 280.846 128.015 280.846 127.109C280.846 126.86 280.789 126.614 280.68 126.39V126.39C280.405 125.826 279.834 125.469 279.207 125.468V125.468Z"
            fill="#3D563E" />
        <path
            d="M380.404 192.646H351.475C347.556 192.646 344.379 189.466 344.379 185.542C344.379 181.619 347.556 178.438 351.475 178.438H380.404C384.323 178.438 387.5 181.619 387.5 185.542C387.5 189.466 384.323 192.646 380.404 192.646Z"
            fill="#149548" />
        <path d="M281.558 182.617L281.542 183.71L337.446 184.518L337.462 183.426L281.558 182.617Z"
            fill="#3D563E" />
        <path
            d="M279.211 186.127C277.703 186.128 276.48 184.906 276.478 183.397C276.477 181.887 277.698 180.663 279.205 180.661C280.25 180.66 281.204 181.256 281.662 182.196C282.322 183.554 281.757 185.191 280.4 185.851C280.03 186.032 279.623 186.126 279.211 186.127ZM279.207 181.753C278.302 181.753 277.568 182.488 277.568 183.394C277.568 184.3 278.302 185.034 279.207 185.035C280.112 185.035 280.846 184.3 280.846 183.394C280.846 183.145 280.789 182.899 280.68 182.675C280.405 182.112 279.834 181.754 279.207 181.753Z"
            fill="#3D563E" />
        <path
            d="M207.357 192.58C208.74 191.469 208.961 189.445 207.851 188.061C207.743 187.927 207.625 187.801 207.498 187.686L212.697 172.532L208.863 170.062L202.82 188.106C201.734 189.507 201.989 191.523 203.388 192.61C204.559 193.519 206.2 193.507 207.357 192.58V192.58Z"
            fill="#FFB6B6" />
        <path
            d="M211.794 150.767C210.875 154.655 209.505 158.052 209.69 159.683C209.874 161.31 207.888 162.873 208.519 164.159C209.149 165.448 207.21 165.586 207.735 167.661C208.261 169.74 208.603 170.185 208.159 170.527C207.711 170.868 205.348 178.803 205.348 178.803L206.734 179.312L210.779 180.789L220.284 165.137L220.256 145.925L217.896 145.85C217.329 146.062 216.701 146.318 216.075 146.625C214.163 147.549 212.229 148.915 211.794 150.767Z"
            fill="#149548" />
        <path d="M246.796 272.669H251.739L254.09 253.582H246.795L246.796 272.669Z" fill="#FFB6B6" />
        <path
            d="M253.383 273.115V269.76L252.084 269.839L246.794 270.153L245.57 270.228L244.634 281.464L244.584 282.066H248.094L248.207 281.468L248.716 278.749L250.032 281.468L250.321 282.066H259.626C260.778 282.059 261.71 281.124 261.715 279.971C262.108 278.134 254.37 274.164 253.383 273.115V273.115Z"
            fill="#2E412E" />
        <path d="M188.886 267.283L193.186 269.725L204.639 254.286L198.294 250.682L188.886 267.283Z"
            fill="#FFB6B6" />
        <path
            d="M194.398 270.922L196.049 268.007L194.887 267.434L190.128 265.096L189.025 264.552L183.606 272.495L182.332 274.361L183.773 275.181L185.382 276.097L187.563 273.52L187.32 277.197L194.921 281.518H194.925L195.414 281.794C196.419 282.363 197.694 282.009 198.263 281.004C199.509 279.598 194.737 272.328 194.398 270.922Z"
            fill="#2E412E" />
        <path
            d="M222.265 178.974C215.642 183.368 209.085 225.586 210.805 224.897L195.193 254.025L203.173 259.427L232.026 213.207L241.618 233.653L245.579 265.037L255.514 264.327C252.932 228.97 246.486 191.68 241.145 177.256L222.265 178.974V178.974Z"
            fill="#2E412E" />
        <path
            d="M217.236 182.109L217.164 182.381C224.167 186.281 243.334 181.763 243.334 181.763L240.244 171.798L244.415 149.659C244.393 146.085 241.48 143.206 237.911 143.229C237.764 143.23 237.617 143.236 237.471 143.247L232.439 139.515L225.275 139.762L220.483 145.061L217.621 146.085L215.396 146.879C214.947 147.284 214.456 147.752 213.986 148.267L217.504 169.229L219.001 175.498L217.236 182.109Z"
            fill="#149548" />
        <path
            d="M228.864 138.683C233.941 138.683 238.056 134.563 238.056 129.481C238.056 124.399 233.941 120.279 228.864 120.279C223.788 120.279 219.673 124.399 219.673 129.481C219.673 134.563 223.788 138.683 228.864 138.683Z"
            fill="#FFB6B6" />
        <path
            d="M216.778 126.275C216.806 126.285 216.83 126.296 216.857 126.306C216.91 126.329 216.964 126.349 217.019 126.365C217.369 126.494 217.734 126.578 218.106 126.615C218.264 126.632 218.424 126.641 218.583 126.64C218.787 126.641 218.992 126.628 219.194 126.601C219.42 126.573 219.642 126.528 219.86 126.465C219.964 126.437 220.066 126.404 220.166 126.366C221.55 125.874 222.622 124.761 223.064 123.36V123.356C223.087 123.289 223.107 123.22 223.123 123.15C223.225 122.763 223.277 122.365 223.277 121.965V121.958C223.279 120.983 222.976 120.031 222.408 119.238C222.066 118.752 221.671 118.671 221.893 118.116C222.6 116.346 219.707 114.898 218 115.677C217.938 115.671 217.876 115.668 217.814 115.669C216.665 115.666 216.238 117.366 215.553 118.323L215.572 118.33C216.032 118.491 216.275 118.995 216.114 119.455C216.023 119.713 215.82 119.914 215.561 120.001C215.105 120.15 214.644 120.281 214.178 120.396C212.641 122.212 214.403 127.527 216.778 126.275Z"
            fill="#2E412E" />
        <path
            d="M217.624 131.147C218.061 133.116 219.109 134.895 220.618 136.231C222.174 137.489 229.488 140.47 230.105 137.918C229.692 139.7 229.941 140.381 230.605 141.019C230.719 140.865 230.839 140.717 230.963 140.573C231.42 140.046 231.968 139.607 232.58 139.275C232.596 140.351 232.518 141.427 232.349 142.491C232.622 142.743 232.883 143.01 233.129 143.29C234.312 139.76 236.905 135.533 235.028 132.319C234.283 131.043 234.904 130.868 235.564 130.722C236.716 130.466 237.351 125.733 237.625 124.583C237.965 123.14 238.1 121.481 237.207 120.297C236.314 119.112 234.056 119.062 233.599 120.473L232.648 119.179C231.419 116.471 228.157 117.013 225.207 117.362C222.216 117.816 219.641 119.718 218.326 122.445C217.059 125.168 216.81 128.256 217.624 131.147V131.147Z"
            fill="#2E412E" />
        <path
            d="M222.274 118.779C222.402 122.117 220.528 125.208 217.511 126.635C216.912 126.907 216.39 126.018 216.994 125.744C219.69 124.499 221.369 121.747 221.244 118.776C221.21 118.113 222.24 118.118 222.274 118.779V118.779V118.779Z"
            fill="#149548" />
        <path
            d="M263.788 123.87C262.079 124.345 261.079 126.116 261.553 127.827C261.599 127.993 261.658 128.155 261.73 128.311L250.979 140.181L253.528 143.966L266.193 129.773C267.743 128.915 268.304 126.962 267.447 125.41C266.729 124.112 265.217 123.475 263.788 123.87L263.788 123.87Z"
            fill="#FFB6B6" />
        <path
            d="M233.229 162.38C233.229 162.38 240.854 163.751 243.23 160.537C245.607 157.324 248.205 154.746 248.677 153.176C249.15 151.605 251.59 150.956 251.518 149.524C251.445 148.091 253.283 148.731 253.618 146.615C253.953 144.499 253.815 143.954 254.36 143.816C254.905 143.678 260.202 137.321 260.202 137.321L255.995 133.351L241.093 143.977L233.229 162.38L233.229 162.38Z"
            fill="#149548" />
        <path
            d="M175.882 278.059C169.899 277.346 164.557 273.967 161.344 268.864C159.281 265.515 158.217 261.537 157.188 257.691C156.888 256.571 156.578 255.414 156.25 254.298C155.491 251.803 156.325 249.098 158.355 247.464C160.318 245.817 163.085 245.531 165.342 246.742L165.583 246.87L166.005 256.367C166.63 255.095 168.003 252.221 169.09 249.351L169.181 249.11L169.39 249.261C171.576 250.833 173.555 252.675 175.282 254.742C181.452 262.251 184.01 272.097 182.277 281.665L182.224 281.946L175.882 278.059H175.882Z"
            fill="#F2F2F2" />
        <path
            d="M137.199 281.85C137.198 282.208 137.487 282.499 137.845 282.5H296.3C296.659 282.5 296.95 282.209 296.95 281.85C296.95 281.49 296.659 281.199 296.3 281.199H137.849C137.491 281.198 137.2 281.488 137.199 281.846V281.85Z"
            fill="#CCCCCC" />
        <path
            d="M89.7915 9.9483C92.3408 9.9483 94.4074 7.83322 94.4074 5.22415C94.4074 2.61507 92.3408 0.5 89.7915 0.5C87.2422 0.5 85.1755 2.61507 85.1755 5.22415C85.1755 7.83322 87.2422 9.9483 89.7915 9.9483Z"
            fill="#3D563E" />
        <path
            d="M105.738 9.9483C108.287 9.9483 110.353 7.83322 110.353 5.22415C110.353 2.61507 108.287 0.5 105.738 0.5C103.188 0.5 101.122 2.61507 101.122 5.22415C101.122 7.83322 103.188 9.9483 105.738 9.9483Z"
            fill="#3D563E" />
        <path
            d="M121.684 9.9483C124.233 9.9483 126.3 7.83322 126.3 5.22415C126.3 2.61507 124.233 0.5 121.684 0.5C119.134 0.5 117.068 2.61507 117.068 5.22415C117.068 7.83322 119.134 9.9483 121.684 9.9483Z"
            fill="#3D563E" />
        <path
            d="M139.866 8.95757C139.725 8.95757 139.583 8.90261 139.476 8.79321L136.362 5.60573C136.154 5.39334 136.154 5.05393 136.362 4.84154L139.476 1.65433C139.687 1.43874 140.033 1.43527 140.248 1.64579C140.464 1.85685 140.467 2.20292 140.256 2.41851L137.515 5.22364L140.256 8.02902C140.467 8.24462 140.464 8.59069 140.248 8.80175C140.142 8.90581 140.004 8.95757 139.866 8.95757Z"
            fill="#3D563E" />
        <path
            d="M145.1 8.95797C144.962 8.95797 144.824 8.90621 144.718 8.80215C144.503 8.59109 144.499 8.24529 144.71 8.02942L147.451 5.22404L144.71 2.41891C144.499 2.20332 144.503 1.85725 144.718 1.64619C144.933 1.43487 145.279 1.43887 145.49 1.65473L148.604 4.84194C148.812 5.05433 148.812 5.39374 148.604 5.60613L145.49 8.79361C145.383 8.90301 145.242 8.95797 145.1 8.95797Z"
            fill="#3D563E" />
        <path
            d="M308.038 1.04688H302.247C301.586 1.04688 301.052 1.58239 301.052 2.24361V8.04697C301.052 8.7082 301.586 9.24371 302.247 9.24371H308.038C308.699 9.24371 309.239 8.7082 309.239 8.04697V2.24361C309.239 1.58239 308.699 1.04688 308.038 1.04688Z"
            fill="#3D563E" />
        <path
            d="M293.846 1.04688H288.055C287.395 1.04688 286.86 1.58239 286.86 2.24361V8.04697C286.86 8.7082 287.395 9.24371 288.055 9.24371H293.846C294.507 9.24371 295.047 8.7082 295.047 8.04697V2.24361C295.047 1.58239 294.507 1.04688 293.846 1.04688Z"
            fill="#3D563E" />
        <path
            d="M321.411 1.32031H315.62C314.959 1.32031 314.425 1.85583 314.425 2.51705V8.32041C314.425 8.98163 314.959 9.51715 315.62 9.51715H321.411C322.072 9.51715 322.612 8.98163 322.612 8.32041V2.51705C322.612 1.85583 322.072 1.32031 321.411 1.32031Z"
            fill="#3D563E" />
        <path
            d="M234.12 3.52832H187.827C187.019 3.52832 186.37 4.18407 186.37 4.98738C186.37 5.79069 187.019 6.4464 187.827 6.4464H234.12C234.922 6.4464 235.577 5.79065 235.577 4.98738C235.577 4.18411 234.922 3.52832 234.12 3.52832Z"
            fill="#3D563E" />
    </g>
    <defs>
        <clipPath id="clip0_209_42611">
            <rect width="387" height="282" fill="white" transform="translate(0.5 0.5)" />
        </clipPath>
    </defs>
</svg>